<svg width="34" height="34" viewBox="0 0 34 34" fill="none" xmlns="http://www.w3.org/2000/svg">
<g id="icon-Leaderpaw " clip-path="url(#clip0_117_6955)">
<path id="Vector" d="M17 34C26.3888 34 34 26.3888 34 17C34 7.61116 26.3888 0 17 0C7.61116 0 0 7.61116 0 17C0 26.3888 7.61116 34 17 34Z" fill="#FFD939"/>
<path id="Vector_2" d="M31.4454 25.9668C28.4452 30.7899 23.0975 34 17 34C13.6512 34 10.5281 33.0318 7.89641 31.359C5.73688 29.9871 3.90738 28.1403 2.55469 25.9668L3.84695 16.4448L4.98051 8.09491C4.98051 8.09491 5.26141 6.1014 5.83582 4.18026C6.36906 2.3946 7.15598 0.671356 8.20519 0.671356C8.20519 0.671356 8.9609 0.931005 9.80824 1.59241C10.5268 2.15155 11.311 3.00022 11.7553 4.2221C11.7553 4.2221 12.3888 3.77319 13.5502 3.38936C14.4022 3.10647 15.5398 2.86011 16.919 2.85081C16.9462 2.85015 16.9728 2.85015 17 2.85015C20.3084 2.85015 22.2441 4.2221 22.2441 4.2221C22.6884 3.00022 23.4727 2.15155 24.1912 1.59175C25.0385 0.931005 25.7949 0.671356 25.7949 0.671356C26.8441 0.671356 27.631 2.3946 28.1643 4.18026C28.7387 6.1014 29.0196 8.09491 29.0196 8.09491L31.4454 25.9668Z" fill="#09080D"/>
<path id="Vector_3" d="M16.919 2.85081C13.5051 2.92983 10.6589 8.0046 9.93508 15.1134C9.35801 20.7765 9.69336 27.9158 7.89641 31.359C5.73688 29.9871 3.90738 28.1403 2.55469 25.9668L3.84695 16.4448L4.98051 8.09491C4.98051 8.09491 5.26141 6.1014 5.83582 4.18026C6.36906 2.3946 7.15598 0.671356 8.20519 0.671356C8.20519 0.671356 8.9609 0.931005 9.80824 1.59241C10.5268 2.15155 11.311 3.00022 11.7553 4.2221C11.7553 4.2221 12.3888 3.77319 13.5502 3.38936C14.4022 3.10647 15.5398 2.86011 16.919 2.85081Z" fill="#434352"/>
<path id="Vector_4" d="M10.6106 12.2534C12.1036 12.2534 13.3139 11.0431 13.3139 9.55007C13.3139 8.05706 12.1036 6.84674 10.6106 6.84674C9.11755 6.84674 7.90723 8.05706 7.90723 9.55007C7.90723 11.0431 9.11755 12.2534 10.6106 12.2534Z" fill="#FFD939"/>
<path id="Vector_5" d="M23.3894 12.2534C24.8824 12.2534 26.0927 11.0431 26.0927 9.55007C26.0927 8.05706 24.8824 6.84674 23.3894 6.84674C21.8964 6.84674 20.686 8.05706 20.686 9.55007C20.686 11.0431 21.8964 12.2534 23.3894 12.2534Z" fill="#FFD939"/>
<g id="Group">
<path id="Vector_6" d="M24.0344 11.7241C24.3582 11.7241 24.6207 10.9368 24.6207 9.9655C24.6207 8.99424 24.3582 8.20688 24.0344 8.20688C23.7107 8.20688 23.4482 8.99424 23.4482 9.9655C23.4482 10.9368 23.7107 11.7241 24.0344 11.7241Z" fill="#211F21"/>
<path id="Vector_7" d="M11.138 11.7241C11.4617 11.7241 11.7242 10.9368 11.7242 9.9655C11.7242 8.99424 11.4617 8.20688 11.138 8.20688C10.8142 8.20688 10.5518 8.99424 10.5518 9.9655C10.5518 10.9368 10.8142 11.7241 11.138 11.7241Z" fill="#211F21"/>
<path id="Vector_8" d="M8.26946 5.9911C8.81671 5.75283 9.13872 5.17171 9.03386 4.58415C8.84885 3.54761 8.05769 2.27925 7.42683 2.33178C6.51248 2.40788 5.62224 6.37406 6.68096 6.37406C7.25869 6.37399 7.85077 6.17338 8.26946 5.9911Z" fill="#211F21"/>
</g>
<path id="Vector_9" d="M25.7305 5.9911C25.1833 5.75283 24.8613 5.17171 24.9661 4.58415C25.1511 3.54761 25.9423 2.27925 26.5732 2.33178C27.4875 2.40788 28.3777 6.37406 27.319 6.37406C26.7413 6.37399 26.1492 6.17338 25.7305 5.9911Z" fill="#434352"/>
<path id="Union" fill-rule="evenodd" clip-rule="evenodd" d="M18.8806 9.78561L17.973 11.3577C17.816 11.6296 17.5736 11.8028 17.3077 11.8773V12.2254L17.3077 12.2351C17.3129 12.653 17.6544 12.9914 18.0736 12.9914C18.4959 12.9914 18.8395 12.6478 18.8395 12.2254V11.8249C18.8395 11.6415 18.9882 11.4928 19.1715 11.4928C19.3549 11.4928 19.5036 11.6415 19.5036 11.8249V12.2254C19.5036 13.014 18.8621 13.6554 18.0736 13.6554C17.6329 13.6554 17.2382 13.4551 16.9757 13.1407C16.7132 13.4551 16.3184 13.6554 15.8777 13.6554C15.0892 13.6554 14.4478 13.0139 14.4478 12.2254L16.6436 12.235L16.6437 12.2254V11.8626C16.3969 11.7813 16.1742 11.613 16.0268 11.3577L15.1192 9.78561C14.6867 9.03655 15.2273 8.10022 16.0922 8.10022H17.9076C18.7725 8.10022 19.3131 9.03655 18.8806 9.78561Z" fill="#434352"/>
</g>
<defs>
<clipPath id="clip0_117_6955">
<rect width="34" height="34" fill="white"/>
</clipPath>
</defs>
</svg>
