<svg width="24" height="27" viewBox="0 0 24 27" fill="none" xmlns="http://www.w3.org/2000/svg">
<g id="icon-score">
<path id="Vector" d="M18.9055 17.221V24.3552C18.9055 25.7206 17.7988 26.8273 16.4334 26.8273H12.0726C11.8038 26.3884 11.1973 25.2653 11.2355 23.7225C11.2783 21.9934 12.1044 20.807 12.4081 20.4102C14.5739 19.3471 16.7397 18.2841 18.9055 17.221Z" fill="#313D49"/>
<path id="Vector_2" d="M12.0726 26.8273H7.56648C6.20113 26.8273 5.09387 25.7206 5.09387 24.3552V17.221C6.23099 17.5376 7.52043 17.9722 8.90137 18.5768C10.2505 19.1674 11.4204 19.8035 12.408 20.4102C12.0885 21.1848 11.7256 22.3417 11.6778 23.7742C11.6392 24.9356 11.818 25.9666 12.0726 26.8273Z" fill="#313D49"/>
<path id="Vector_3" d="M21.3764 13.7387C21.4191 13.8833 21.4578 14.0298 21.4926 14.1779C21.9637 16.1339 21.5102 18.1759 20.2474 19.785C18.9801 21.3998 17.0959 22.3254 15.0783 22.3254C14.4457 22.2603 13.78 22.1657 13.0865 22.0326C12.8555 21.9883 12.6293 21.9413 12.4081 21.8919C11.4359 19.9885 9.81453 16.1878 9.78484 11.144C9.7573 6.45859 11.1161 2.86391 11.9996 0.954101C12.8045 0.339487 13.7717 0 14.7782 0C16.1874 0 17.5208 0.662441 18.4373 1.81813C18.9191 2.42589 19.2643 3.14357 19.454 3.91427C21.9864 4.08119 24 6.34818 24 9.1124C23.9999 11.1237 22.9331 12.8712 21.3764 13.7387Z" fill="#313D49"/>
<path id="Vector_4" d="M12.4081 21.8919C11.9074 21.8372 11.3976 21.8839 10.9129 22.0326C10.2898 22.224 9.63816 22.3237 8.98196 22.3254C8.52548 22.3294 7.87426 22.2885 7.13088 22.0749C5.20034 21.5202 4.09048 20.2155 3.75249 19.785C2.48909 18.1759 2.03631 16.1333 2.50734 14.1784C2.5415 14.0298 2.58082 13.8834 2.62356 13.7387C1.06684 12.8712 0 11.1237 0 9.11245C0 6.34818 2.01292 4.08119 4.54597 3.91432C4.73562 3.14368 5.0808 2.426 5.56271 1.81819C6.47855 0.662441 7.81201 0 9.22121 0C10.2277 0 11.1949 0.339487 11.9997 0.954101C11.4939 3.72407 11.1077 7.09262 11.1447 10.9243C11.1851 15.1553 11.732 18.8605 12.4081 21.8919Z" fill="#25303B"/>
<g id="Group">
<path id="Vector_5" d="M4.84497 11.2755C5.83881 11.2755 6.64447 10.307 6.64447 9.11223C6.64447 7.91746 5.83881 6.94891 4.84497 6.94891C3.85114 6.94891 3.04547 7.91746 3.04547 9.11223C3.04547 10.307 3.85114 11.2755 4.84497 11.2755Z" fill="#FF97C1"/>
<path id="Vector_6" d="M19.1547 11.2755C20.1485 11.2755 20.9542 10.307 20.9542 9.11223C20.9542 7.91746 20.1485 6.94891 19.1547 6.94891C18.1608 6.94891 17.3552 7.91746 17.3552 9.11223C17.3552 10.307 18.1608 11.2755 19.1547 11.2755Z" fill="#FF97C1"/>
<path id="Vector_7" d="M14.7783 7.58421C15.7722 7.58421 16.5778 6.5682 16.5778 5.3149C16.5778 4.0616 15.7722 3.04559 14.7783 3.04559C13.7845 3.04559 12.9788 4.0616 12.9788 5.3149C12.9788 6.5682 13.7845 7.58421 14.7783 7.58421Z" fill="#FF97C1"/>
<path id="Vector_8" d="M9.22131 7.58421C10.2151 7.58421 11.0208 6.5682 11.0208 5.3149C11.0208 4.0616 10.2151 3.04559 9.22131 3.04559C8.22748 3.04559 7.42181 4.0616 7.42181 5.3149C7.42181 6.5682 8.22748 7.58421 9.22131 7.58421Z" fill="#FF97C1"/>
<path id="Vector_9" d="M15.0362 19.2797C14.3965 19.2797 13.7962 19.1123 13.2767 18.8189C12.812 18.5569 12.2833 18.4487 11.7656 18.4954C11.3676 17.6008 10.8567 16.1493 10.78 14.3013C10.7222 12.9107 10.929 11.7487 11.1447 10.9243V10.9174C11.4323 10.8895 11.7183 10.8736 11.9997 10.869C14.715 10.9134 17.8699 12.0093 18.529 14.8795C19.0701 17.0925 17.314 19.3071 15.0362 19.2797Z" fill="#FF97C1"/>
</g>
<path id="Vector_10" d="M11.7656 18.4954C11.4039 18.5279 11.0473 18.6355 10.7232 18.8189C10.2038 19.1122 9.60343 19.2797 8.96377 19.2797C6.68539 19.3071 4.9299 17.0925 5.47098 14.8796C6.06049 12.3073 8.65845 11.1596 11.1447 10.9175V10.9244C11.1715 13.6858 11.413 16.2233 11.7656 18.4954Z" fill="#FF71A8"/>
</g>
</svg>
